REM MD5 30affebacd10a8dda1336fb3b5fd09b0
FILE "ESPN Extreme Games (USA).bin" BINARY
  TRACK 01 MODE2/2352
    INDEX 01 00:00:00
  TRACK 02 AUDIO
    INDEX 00 20:30:23
    INDEX 01 20:34:23
  TRACK 03 AUDIO
    INDEX 01 26:09:48
  TRACK 04 AUDIO
    INDEX 01 30:42:16
  TRACK 05 AUDIO
    INDEX 01 36:56:34
  TRACK 06 AUDIO
    INDEX 01 42:03:13
  TRACK 07 AUDIO
    INDEX 01 48:22:18
  TRACK 08 AUDIO
    INDEX 01 54:19:44
REM LEADOUT 60:16:70
